# xmcd
#
# Track frame offsets:
#	150
#	23523
#	52478
#	75194
#	96687
#	122852
#	142091
#	163360
#	182533
#	196700
#	222388
#	241724
#	256251
#
# Disc length: 3562 seconds
#
# Revision: 0
# Processed by: cddbd v1.5.2PL0 Copyright (c) Steve Scherf et al.
# Submitted via: EasyCDDAExtractor 16.0.9.1
#
DISCID=b70de80d
DTITLE=José Luis Pardo - Ruccula For Dracula
DYEAR=2016
DGENRE=Blues
TTITLE0=Talkin 'Bout My Baby 
TTITLE1=Girl, Come Home
TTITLE2=J L Shuffle
TTITLE3=Happy As A King
TTITLE4=Don't Treat Me This Way
TTITLE5=The Dirty Story Of Dirty D
TTITLE6=All You Got To Do
TTITLE7=I'll Go (Without Your Love)
TTITLE8=Blues For Frenda
TTITLE9=Don't Leave Me
TTITLE10=Ruccula For Dracula
TTITLE11=Walk Away
TTITLE12=Mabelle
EXTD=
EXTT0=
EXTT1=
EXTT2=
EXTT3=
EXTT4=
EXTT5=
EXTT6=
EXTT7=
EXTT8=
EXTT9=
EXTT10=
EXTT11=
EXTT12=
PLAYORDER=
